<svg width="144" height="32" viewBox="0 0 144 32" fill="none" xmlns="http://www.w3.org/2000/svg">
<path d="M142.006 11.3211L141.956 10.8183C141.924 10.4939 141.792 10.2831 141.544 10.1858C141.891 10.0398 142.055 9.78028 142.055 9.3748C142.055 9.06664 141.956 8.83958 141.742 8.67739C141.528 8.5152 141.231 8.4341 140.852 8.4341H139.369V11.8401H139.962V10.4777H140.902C141.066 10.4777 141.182 10.5101 141.248 10.5912C141.314 10.6561 141.363 10.7859 141.38 10.9805L141.413 11.3211C141.429 11.5644 141.462 11.7428 141.544 11.8401H142.154C142.072 11.6941 142.022 11.5157 142.006 11.3211ZM140.902 9.94247H139.979V8.96933H140.852C141.248 8.96933 141.446 9.13152 141.446 9.4559C141.446 9.78028 141.264 9.94247 140.902 9.94247ZM142.006 11.3211L141.956 10.8183C141.924 10.4939 141.792 10.2831 141.544 10.1858C141.891 10.0398 142.055 9.78028 142.055 9.3748C142.055 9.06664 141.956 8.83958 141.742 8.67739C141.528 8.5152 141.231 8.4341 140.852 8.4341H139.369V11.8401H139.962V10.4777H140.902C141.066 10.4777 141.182 10.5101 141.248 10.5912C141.314 10.6561 141.363 10.7859 141.38 10.9805L141.413 11.3211C141.429 11.5644 141.462 11.7428 141.544 11.8401H142.154C142.072 11.6941 142.022 11.5157 142.006 11.3211ZM140.902 9.94247H139.979V8.96933H140.852C141.248 8.96933 141.446 9.13152 141.446 9.4559C141.446 9.78028 141.264 9.94247 140.902 9.94247ZM143.044 7.93132C142.401 7.315 141.61 7.00684 140.671 7.00684C139.731 7.00684 138.94 7.315 138.298 7.93132C137.655 8.54764 137.325 9.29371 137.325 10.1858C137.325 11.0778 137.655 11.8239 138.298 12.4402C138.94 13.0565 139.731 13.3647 140.671 13.3647C141.61 13.3647 142.401 13.0565 143.044 12.4402C143.687 11.8239 144 11.0778 144 10.1858C144 9.29371 143.687 8.54764 143.044 7.93132ZM142.55 11.9861C142.055 12.4726 141.429 12.7159 140.671 12.7159C139.913 12.7159 139.27 12.4726 138.776 11.9861C138.265 11.4833 138.017 10.8832 138.017 10.1695C138.017 9.4559 138.265 8.83958 138.776 8.35301C139.27 7.86644 139.913 7.62316 140.671 7.62316C141.429 7.62316 142.055 7.86644 142.55 8.35301C143.061 8.8558 143.308 9.4559 143.308 10.1695C143.324 10.8832 143.061 11.4833 142.55 11.9861ZM141.973 10.8183C141.94 10.4939 141.808 10.2831 141.561 10.1858C141.907 10.0398 142.072 9.78028 142.072 9.3748C142.072 9.06664 141.973 8.83958 141.759 8.67739C141.544 8.5152 141.248 8.4341 140.869 8.4341H139.385V11.8401H139.979V10.4777H140.918C141.083 10.4777 141.198 10.5101 141.264 10.5912C141.33 10.6561 141.38 10.7859 141.396 10.9805L141.429 11.3211C141.446 11.5644 141.479 11.7428 141.561 11.8401H142.171C142.072 11.6941 142.022 11.5157 142.006 11.3211L141.973 10.8183ZM140.902 9.94247H139.979V8.96933H140.852C141.248 8.96933 141.446 9.13152 141.446 9.4559C141.446 9.78028 141.264 9.94247 140.902 9.94247Z" fill="white"/>
<path d="M90.9626 6.4873C86.0017 6.4873 83.3811 8.51467 83.1174 12.5856H86.6609C86.8752 9.82841 88.4244 9.3094 90.9626 9.3094C93.8304 9.3094 94.7533 10.1852 94.7533 11.9207C94.7533 13.3641 93.7809 13.9967 92.0009 14.2075L89.2815 14.4833C84.6502 14.9536 82.3263 16.835 82.3263 20.1112C82.3263 24.1173 85.6885 25.4959 88.9189 25.4959C91.6878 25.4959 93.6985 24.539 94.9346 22.6089V25.0742H98.2639V11.8396C98.2804 8.27139 95.8411 6.4873 90.9626 6.4873ZM94.7698 17.9054C94.7698 19.4625 94.2754 20.6627 93.27 21.5061C92.2646 22.3494 90.9956 22.7711 89.4793 22.7711C88.3585 22.7711 87.5015 22.5279 86.9081 22.0413C86.3313 21.5547 86.0346 20.8897 86.0346 20.0139C86.0346 19.1381 86.3313 18.4731 86.9246 17.9865C87.518 17.5 88.5069 17.1918 89.8913 17.0134L92.4789 16.7377C93.5502 16.6242 94.3083 16.3809 94.7698 16.0078V17.9054Z" fill="white"/>
<path d="M14.8346 0H10.4341L0.479263 25.0907H4.4513L6.92352 18.5707H18.3782L20.8833 25.0907H24.9378L14.8346 0ZM8.12667 15.2945C8.12667 15.2945 10.533 9.0664 12.6096 3.63305C14.1259 7.73644 17.1256 15.2945 17.1256 15.2945H8.12667Z" fill="white"/>
<path d="M39.3587 0V9.37456C37.9742 7.4445 35.98 6.48758 33.3759 6.48758C28.8105 6.48758 24.9209 9.52053 24.9209 16.0081C24.9209 21.9605 28.3161 25.5124 33.3759 25.5124C36.0789 25.5124 38.1226 24.4744 39.4905 22.4146V25.0907H42.9352V0H39.3587ZM34.0516 22.4795C31.019 22.4795 28.6457 20.4845 28.6457 16.1379C28.6457 11.9858 30.7553 9.52053 34.0516 9.52053C37.9413 9.52053 39.4576 12.4562 39.4576 16.0081C39.4576 20.1926 37.3479 22.4795 34.0516 22.4795Z" fill="white"/>
<path d="M54.5711 14.5481L52.6428 14.2237C50.154 13.7372 49.1981 13.0073 49.1981 11.6449C49.1981 9.89329 50.7968 9.21209 52.7746 9.21209C56.3181 9.21209 56.9939 10.7042 57.1092 12.5532H60.5868C60.4715 8.51467 57.8674 6.4873 52.7911 6.4873C47.9126 6.4873 45.6711 8.83905 45.6711 11.7747C45.6711 14.6941 47.6324 16.4944 51.5385 17.208L53.4339 17.5649C56.6313 18.1163 57.3729 18.9597 57.3729 20.241C57.3729 21.9278 56.005 22.7711 53.2855 22.7711C49.6431 22.7711 48.9509 21.2141 48.7366 19.3165H45.1602C45.4239 23.4686 48.1268 25.5446 53.2526 25.5446C58.4937 25.5446 60.9824 23.2253 60.9824 19.9815C60.9824 17.2405 59.4661 15.4726 54.5711 14.5481Z" fill="white"/>
<path d="M72.7835 6.4873C70.0641 6.4873 68.0039 7.54154 66.6194 9.65V6.909H63.1748V31.9997H66.7513V22.5441C68.1357 24.5228 70.1465 25.4959 72.767 25.4959C77.6291 25.4959 81.222 22.0737 81.222 15.9916C81.222 10.0555 77.8763 6.4873 72.7835 6.4873ZM72.0913 22.4792C68.6467 22.4792 66.6854 19.8679 66.6854 15.9916C66.6854 11.8882 68.762 9.50403 72.0913 9.50403C76.0139 9.50403 77.4972 12.4397 77.4972 15.8456C77.5137 19.9328 75.5359 22.4792 72.0913 22.4792Z" fill="white"/>
<path d="M113.922 18.6029C113.411 21.6034 111.153 22.4468 109.307 22.4468C105.516 22.4468 104.214 19.203 104.214 16.0078C104.214 12.3586 105.796 9.55269 109.307 9.55269C111.384 9.55269 113.361 10.6069 113.889 13.2506H117.548C117.037 9.53647 114.301 6.4873 109.307 6.4873C104.906 6.4873 100.489 9.24453 100.489 15.9916C100.489 22.317 104.61 25.4959 109.29 25.4959C114.713 25.4959 117.119 21.8791 117.564 18.5866H113.922V18.6029Z" fill="white"/>
<path d="M136.221 16.1376C136.221 10.7042 133.139 6.4873 127.453 6.4873C122.624 6.4873 118.684 9.84463 118.684 16.0078C118.684 22.1224 122.607 25.5121 127.535 25.5121C132.166 25.5121 134.902 22.8685 135.809 19.5273H132.199C131.474 21.5547 129.958 22.5603 127.617 22.5603C124.865 22.5603 122.689 21.133 122.327 17.1756H136.254V16.1376H136.221ZM122.327 14.3697C122.541 12.7803 123.101 11.5476 123.991 10.7042C124.881 9.86085 126.035 9.43915 127.453 9.43915C128.886 9.43915 130.04 9.89329 130.947 10.8015C131.837 11.7098 132.364 12.8938 132.545 14.3697H122.327Z" fill="white"/>
</svg>
