<svg width="29" height="26" viewBox="0 0 29 26" fill="none" xmlns="http://www.w3.org/2000/svg">
<path d="M9.29617 0L11.4181 2.73684C10.3403 4.56141 9.36353 6.45614 8.48781 8.42105C7.67944 10.3158 7.2079 12.2105 7.07317 14.1053L12.3275 15.1579V26H0V18.2105C0 13.6491 0.909408 9.96491 2.72822 7.1579C4.6144 4.35088 6.80372 1.96491 9.29617 0ZM25.9686 0L28.0906 2.73684C27.0128 4.56141 26.036 6.45614 25.1603 8.42105C24.3519 10.3158 23.8804 12.2105 23.7456 14.1053L29 15.1579V26H16.6725V18.2105C16.6725 13.6491 17.5819 9.96491 19.4007 7.1579C21.2869 4.35088 23.4762 1.96491 25.9686 0Z" fill="#7B58FA"/>
</svg>
