<svg width="20" height="20" viewBox="0 0 20 20" fill="none" xmlns="http://www.w3.org/2000/svg">
<path d="M10 3.03614C12.253 3.03614 12.5602 3.03614 13.4819 3.03614C14.3012 3.03614 14.7108 3.24096 15.0181 3.34337C15.4277 3.54819 15.7349 3.6506 16.0422 3.95783C16.3494 4.26506 16.5542 4.57229 16.6566 4.98193C16.759 5.28916 16.8614 5.6988 16.9639 6.51807C16.9639 7.43976 16.9639 7.64458 16.9639 10C16.9639 12.3554 16.9639 12.5602 16.9639 13.4819C16.9639 14.3012 16.759 14.7108 16.6566 15.0181C16.4518 15.4277 16.3494 15.7349 16.0422 16.0422C15.7349 16.3494 15.4277 16.5542 15.0181 16.6566C14.7108 16.759 14.3012 16.8614 13.4819 16.9639C12.5602 16.9639 12.3554 16.9639 10 16.9639C7.64458 16.9639 7.43976 16.9639 6.51807 16.9639C5.6988 16.9639 5.28916 16.759 4.98193 16.6566C4.57229 16.4518 4.26506 16.3494 3.95783 16.0422C3.6506 15.7349 3.44578 15.4277 3.34337 15.0181C3.24096 14.7108 3.13855 14.3012 3.03614 13.4819C3.03614 12.5602 3.03614 12.3554 3.03614 10C3.03614 7.64458 3.03614 7.43976 3.03614 6.51807C3.03614 5.6988 3.24096 5.28916 3.34337 4.98193C3.54819 4.57229 3.6506 4.26506 3.95783 3.95783C4.26506 3.6506 4.57229 3.44578 4.98193 3.34337C5.28916 3.24096 5.6988 3.13855 6.51807 3.03614C7.43976 3.03614 7.74699 3.03614 10 3.03614ZM10 1.5C7.64458 1.5 7.43976 1.5 6.51807 1.5C5.59639 1.5 4.98193 1.70482 4.46988 1.90964C3.95783 2.11446 3.44578 2.42169 2.93374 2.93374C2.42169 3.44578 2.21687 3.85542 1.90964 4.46988C1.70482 4.98193 1.60241 5.59639 1.5 6.51807C1.5 7.43976 1.5 7.74699 1.5 10C1.5 12.3554 1.5 12.5602 1.5 13.4819C1.5 14.4036 1.70482 15.0181 1.90964 15.5301C2.11446 16.0422 2.42169 16.5542 2.93374 17.0663C3.44578 17.5783 3.85542 17.7831 4.46988 18.0904C4.98193 18.2952 5.59639 18.3976 6.51807 18.5C7.43976 18.5 7.74699 18.5 10 18.5C12.253 18.5 12.5602 18.5 13.4819 18.5C14.4036 18.5 15.0181 18.2952 15.5301 18.0904C16.0422 17.8855 16.5542 17.5783 17.0663 17.0663C17.5783 16.5542 17.7831 16.1446 18.0904 15.5301C18.2952 15.0181 18.3976 14.4036 18.5 13.4819C18.5 12.5602 18.5 12.253 18.5 10C18.5 7.74699 18.5 7.43976 18.5 6.51807C18.5 5.59639 18.2952 4.98193 18.0904 4.46988C17.8855 3.95783 17.5783 3.44578 17.0663 2.93374C16.5542 2.42169 16.1446 2.21687 15.5301 1.90964C15.0181 1.70482 14.4036 1.60241 13.4819 1.5C12.5602 1.5 12.3554 1.5 10 1.5Z" fill="#19191D"/>
<path d="M10 5.59639C7.54217 5.59639 5.59639 7.54217 5.59639 10C5.59639 12.4578 7.54217 14.4036 10 14.4036C12.4578 14.4036 14.4036 12.4578 14.4036 10C14.4036 7.54217 12.4578 5.59639 10 5.59639ZM10 12.8675C8.46386 12.8675 7.13253 11.6386 7.13253 10C7.13253 8.46386 8.36145 7.13253 10 7.13253C11.5361 7.13253 12.8675 8.36145 12.8675 10C12.8675 11.5361 11.5361 12.8675 10 12.8675Z" fill="#19191D"/>
<path d="M14.506 6.51807C15.0716 6.51807 15.5301 6.05957 15.5301 5.49398C15.5301 4.92838 15.0716 4.46988 14.506 4.46988C13.9404 4.46988 13.4819 4.92838 13.4819 5.49398C13.4819 6.05957 13.9404 6.51807 14.506 6.51807Z" fill="#19191D"/>
</svg>
