<svg width="16" height="16" viewBox="0 0 16 16" fill="none" xmlns="http://www.w3.org/2000/svg">
<path d="M16 9.72189V15.6053H12.5561V10.0806C12.5561 8.7174 12.0538 7.78467 10.8341 7.78467C9.90135 7.78467 9.32735 8.43041 9.11211 9.0044C9.04036 9.21965 8.96861 9.50664 8.96861 9.86539V15.6053H5.52466C5.52466 15.6053 5.59641 6.27794 5.52466 5.34521H8.96861V6.78019C9.39911 6.0627 10.2601 5.05821 12.0538 5.05821C14.278 5.05821 16 6.56494 16 9.72189ZM1.93722 0.394531C0.789236 0.394531 0 1.18377 0 2.18825C0 3.19274 0.717488 3.98198 1.86547 3.98198C3.0852 3.98198 3.80269 3.19274 3.80269 2.18825C3.87444 1.11202 3.15695 0.394531 1.93722 0.394531ZM0.215246 15.6053H3.65919V5.34521H0.215246V15.6053Z" fill="#19191D"/>
</svg>
