<svg width="18" height="18" viewBox="0 0 18 18" fill="none" xmlns="http://www.w3.org/2000/svg">
<path d="M9.05545 0C4.07495 0 0 4.15385 0 9.23077C0 13.0385 2.26387 16.2692 5.43327 17.6538C5.43327 16.9615 5.43326 16.2692 5.54646 15.5769C5.77284 14.7692 6.67839 10.5 6.67839 10.5C6.67839 10.5 6.33882 9.92308 6.33882 9C6.33882 7.61539 7.13117 6.57692 8.03672 6.57692C8.82907 6.57692 9.28183 7.15385 9.28183 7.96154C9.28183 8.76923 8.71587 10.0385 8.48948 11.1923C8.2631 12.1154 8.94226 12.9231 9.961 12.9231C11.6589 12.9231 12.7908 10.7308 12.7908 7.96154C12.7908 5.88461 11.4325 4.38462 9.05545 4.38462C6.33881 4.38462 4.64092 6.46154 4.64092 8.76923C4.64092 9.57692 4.86731 10.1538 5.20689 10.6154C5.32008 10.8462 5.43327 10.8462 5.32007 11.0769C5.32007 11.1923 5.20688 11.6538 5.09369 11.7692C4.9805 12 4.86731 12.1154 4.64092 12C3.3958 11.4231 2.82983 10.0385 2.82983 8.42308C2.82983 5.76923 4.98049 2.65385 9.28183 2.65385C12.7908 2.65385 15.0547 5.19231 15.0547 7.96154C15.0547 11.5385 13.1304 14.3077 10.1874 14.3077C9.16864 14.3077 8.2631 13.7308 7.92352 13.1538C7.92352 13.1538 7.35754 15.2308 7.24435 15.6923C7.01797 16.3846 6.6784 17.0769 6.33882 17.6538C7.13117 17.8846 8.0367 18 8.94225 18C13.9227 18 17.9977 13.8462 17.9977 8.76923C18.1109 4.15385 14.0359 0 9.05545 0Z" fill="#19191D"/>
</svg>
