<svg width="115" height="31" viewBox="0 0 115 31" fill="none" xmlns="http://www.w3.org/2000/svg">
<path fill-rule="evenodd" clip-rule="evenodd" d="M65.0925 0.352051C65.0776 3.31891 65.0627 6.28463 65.0501 9.25034C65.0467 9.90291 65.0581 9.91777 65.637 9.64234C67.2706 8.86291 69.0061 8.67777 70.7644 8.88805C72.5639 9.10291 74.0454 10.0103 75.2214 11.3795C76.5347 12.9086 77.2749 14.6938 77.5117 16.6903C77.6593 17.9418 77.7039 19.2001 77.5563 20.4503C77.1754 23.6789 75.9536 26.4618 73.1771 28.3726C71.7483 29.3555 70.1535 29.9109 68.4364 30.1303C68.362 30.1406 68.2453 30.0961 68.2373 30.2389C67.8186 30.2389 67.3988 30.2389 66.9778 30.2389C66.9595 30.1932 66.94 30.2001 66.9217 30.2389C65.9104 30.2389 64.8991 30.2389 63.8901 30.2389C63.8878 30.0892 63.7654 30.1429 63.6956 30.1349C62.1856 29.9452 60.6881 29.6823 59.1974 29.3749C58.9538 29.3235 58.9652 29.1898 58.9675 29.0115C59.0396 24.5943 59.0968 20.1772 59.1036 15.7589C59.1082 12.9703 59.0853 10.1806 59.0132 7.3932C58.9892 6.44691 59.0075 5.49377 58.6929 4.57034C58.4275 3.78634 57.9562 3.27891 57.1165 3.15663C56.9849 3.13605 56.8568 3.09834 56.7275 3.06748C56.2425 2.94748 56.0755 2.63091 56.2219 2.14291C56.2654 1.99777 56.382 1.98748 56.4861 1.96691C57.4551 1.77034 58.4229 1.57377 59.3942 1.38977C60.9901 1.08577 62.5894 0.794338 64.1853 0.484624C64.2951 0.462909 64.4736 0.557764 64.5193 0.353193C64.5765 0.353193 64.6349 0.353193 64.6898 0.353193C64.6772 0.378336 64.6829 0.401195 64.7127 0.397766C64.7264 0.396623 64.7367 0.369193 64.7481 0.353193C64.8637 0.35205 64.9781 0.352051 65.0925 0.352051ZM65.0341 19.7498C65.0581 19.7498 65.081 19.7486 65.1039 19.7486C65.1039 21.6629 65.0936 23.5772 65.1085 25.4892C65.1153 26.3726 65.1737 27.2583 65.2023 28.1429C65.2091 28.3863 65.3235 28.5086 65.5661 28.5235C65.6599 28.5292 65.7548 28.5452 65.8498 28.5555C67.1082 28.6995 68.1549 28.3052 68.9775 27.3361C69.5335 26.6835 69.9327 25.9395 70.2405 25.1452C71.3398 22.3052 71.4817 19.3635 71.0779 16.3852C70.92 15.2241 70.5596 14.1029 69.9201 13.1018C69.1651 11.9212 68.1744 11.1189 66.6655 11.2252C66.217 11.2561 65.7823 11.3395 65.3499 11.4618C65.1325 11.5223 65.0764 11.6229 65.0719 11.8366C65.0067 14.4755 65.0421 17.1132 65.0341 19.7498ZM0 2.29491C0.672672 2.33491 1.33962 2.40805 1.98598 2.61034C2.97554 2.92348 3.39654 3.71434 3.65622 4.62405C3.94566 5.63891 4.01315 6.68691 4.05319 7.73148C4.22022 12.1189 4.1859 16.5086 4.10696 20.8983C4.08179 22.3143 4.03374 23.7338 3.82782 25.1406C3.75232 25.6572 3.64707 26.1692 3.43543 26.6515C3.08651 27.4469 2.50994 27.9612 1.6405 28.1223C1.26641 28.1921 0.896896 28.2858 0.52052 28.3406C0.329472 28.3669 0.191048 28.5143 0 28.5235C0 28.5989 0 28.6755 0 28.7509C0.006864 28.7646 0.014872 28.7772 0.019448 28.7921C0.020592 28.7955 0.006864 28.8035 0 28.8092C0 29.0572 0 29.3052 0 29.5521C0.112112 29.7189 0.286 29.7029 0.453024 29.7041C2.38753 29.7132 4.32318 29.7258 6.25882 29.7258C9.04218 29.7258 11.8255 29.7155 14.6089 29.7132C14.8548 29.7132 15.0276 29.6755 15.0493 29.3726C15.0985 28.7041 15.0264 28.4675 14.6958 28.4001C14.2863 28.3178 13.8756 28.2229 13.4603 28.1806C12.2683 28.0606 11.5681 27.3829 11.2329 26.2732C11.1586 26.0275 11.0922 25.7795 11.0419 25.5292C10.8314 24.4812 10.7936 23.4149 10.7342 22.3521C10.6232 20.3921 10.6072 18.4309 10.6026 16.4698C10.6026 16.2766 10.6724 16.2298 10.8531 16.2366C11.9102 16.2721 12.9672 16.3041 14.0197 16.4138C14.7004 16.4858 15.2484 16.7852 15.6682 17.3281C15.9039 17.6298 16.0949 17.9566 16.254 18.3041C16.5102 18.8606 16.6509 19.4515 16.7882 20.0435C16.8248 20.2001 16.8877 20.2663 17.0525 20.2652C17.2996 20.2641 17.5478 20.2915 17.7949 20.2938C18.2308 20.2983 18.1827 20.3521 18.1827 19.9246C18.1839 16.8869 18.1839 13.8492 18.1839 10.8103C18.1839 10.7532 18.1793 10.6949 18.1839 10.6401C18.1965 10.5041 18.1347 10.4526 18.0008 10.4572C17.7434 10.4663 17.4849 10.4812 17.2286 10.4663C16.9415 10.4458 16.8134 10.5532 16.7504 10.8435C16.5846 11.6058 16.3718 12.3566 15.9462 13.0241C15.4772 13.7589 14.8434 14.2561 13.9488 14.3463C12.9524 14.4481 11.9525 14.4652 10.9515 14.4789C10.6815 14.4835 10.5992 14.4195 10.5992 14.1372C10.5912 10.9463 10.6621 7.75777 10.7639 4.56805C10.7776 4.16005 10.828 3.75319 10.8508 3.34519C10.86 3.18634 10.9263 3.14177 11.0808 3.14291C12.568 3.1532 14.0552 3.15319 15.5424 3.16234C17.0834 3.17262 18.4058 3.71205 19.48 4.82748C20.06 5.42748 20.4959 6.13148 20.8769 6.86977C21.2384 7.57263 21.5083 8.31434 21.8069 9.04348C21.9785 9.46405 22.07 9.50291 22.5048 9.39091C22.753 9.32577 22.9955 9.24005 23.2449 9.18177C23.404 9.14405 23.4566 9.06748 23.4509 8.9052C23.3776 6.3452 23.4017 3.78291 23.2873 1.22291C23.277 0.974909 23.2026 0.881195 22.9326 0.881195C16.0309 0.881195 9.12912 0.87205 2.22737 0.868622C1.48491 0.868622 0.740168 0.842337 0 0.923479C0 1.38062 0 1.83777 0 2.29491ZM28.5428 30.2378C28.5279 30.0778 28.3975 30.1406 28.3163 30.1269C26.2788 29.7955 24.5182 28.9372 23.0928 27.4241C21.8561 26.1109 21.14 24.5338 20.7464 22.8001C20.1836 20.3223 20.1676 17.8332 20.9741 15.4183C22.1959 11.7601 24.7024 9.45148 28.5382 8.71434C30.5951 8.31777 32.6406 8.44805 34.6163 9.17263C37.3036 10.1612 38.9967 12.1143 39.921 14.7761C40.5777 16.6675 40.7035 18.6161 40.5697 20.6035C40.445 22.4652 39.9153 24.1909 38.928 25.7658C37.4523 28.1223 35.2993 29.5041 32.5948 30.0641C32.4461 30.0949 32.294 30.1086 32.1453 30.1395C32.0961 30.1498 32.0011 30.1269 32.032 30.2378C31.6888 30.2378 31.3456 30.2378 31.0024 30.2378C30.983 30.1909 30.9635 30.1978 30.9452 30.2378C30.1444 30.2378 29.3425 30.2378 28.5428 30.2378ZM34.2548 19.7223C34.2765 19.0343 34.2319 18.3498 34.1953 17.6663C34.1232 16.3155 33.9665 14.9761 33.5764 13.6743C33.2446 12.5658 32.7573 11.5486 31.889 10.7452C31.2792 10.1818 30.57 10.0172 29.7726 10.1738C28.9695 10.3303 28.4513 10.8595 28.0635 11.5315C27.289 12.8732 27.0464 14.3669 26.8909 15.8743C26.7467 17.2766 26.757 18.6881 26.7707 20.0972C26.7879 21.8161 26.9561 23.5143 27.456 25.1681C27.7546 26.1578 28.1333 27.1109 28.8643 27.8743C29.8836 28.9372 31.3124 28.9532 32.3672 27.9349C33.1485 27.1795 33.4895 26.2069 33.74 25.1932C34.1862 23.3955 34.2193 21.5566 34.2548 19.7223ZM87.7437 30.2378C87.7837 30.1063 87.6716 30.1395 87.6178 30.1303C83.1951 29.4652 80.0628 26.1978 79.3719 21.7258C78.9165 18.7715 79.2323 15.8755 80.811 13.2321C82.3325 10.6846 84.5782 9.1932 87.4943 8.68348C88.9414 8.43091 90.3806 8.45148 91.8003 8.82634C93.7279 9.3372 95.1854 10.4846 96.1681 12.2126C97.2366 14.0881 97.6095 16.1361 97.5969 18.2721C97.5958 18.4926 97.5146 18.5338 97.3121 18.5338C93.4522 18.5452 89.5924 18.5646 85.7337 18.5738C85.4785 18.5749 85.3962 18.6252 85.4065 18.8983C85.466 20.4892 85.6639 22.0538 86.4063 23.4846C87.4474 25.4846 89.0295 26.7589 91.3415 26.9863C92.5782 27.1075 93.7943 27.0469 94.9634 26.5783C95.4702 26.3749 95.9221 26.0721 96.3866 25.7943C96.6074 25.6629 96.7973 25.5863 97.0078 25.8389C97.3075 26.1978 97.3658 26.3818 97.1622 26.6675C96.7538 27.2378 96.2287 27.6938 95.6876 28.1338C94.3228 29.2401 92.7452 29.8515 91.0247 30.1315C90.9686 30.1406 90.8599 30.1075 90.8908 30.2366C90.1472 30.2366 89.4036 30.2366 88.6611 30.2366C88.6406 30.1852 88.6234 30.2126 88.6028 30.2366C88.4701 30.2366 88.3374 30.2366 88.2024 30.2366C88.1841 30.2229 88.1669 30.2115 88.1486 30.1978C88.1463 30.2115 88.1464 30.2229 88.1441 30.2366C88.0125 30.2378 87.8775 30.2378 87.7437 30.2378ZM88.4026 16.7658C88.4026 16.7418 88.4026 16.7178 88.4026 16.6938C89.2972 16.6938 90.1918 16.6823 91.0876 16.6995C91.3633 16.7052 91.4331 16.6092 91.401 16.3566C91.3701 16.1018 91.361 15.8458 91.3473 15.5886C91.2958 14.5143 91.1757 13.4481 90.8851 12.4103C90.7272 11.8503 90.5224 11.3075 90.1655 10.8378C89.5729 10.0549 88.7046 9.90062 87.8695 10.4241C87.508 10.6492 87.2163 10.9498 86.9875 11.3041C85.9442 12.9178 85.5941 14.7326 85.4534 16.6081C85.4396 16.7978 85.5266 16.8241 85.689 16.8206C86.5928 16.7955 87.4988 16.8252 88.4026 16.7658ZM107.65 30.2378C107.694 30.0709 107.837 30.1452 107.934 30.1281C110.056 29.7543 111.94 28.9543 113.243 27.1372C113.764 26.4103 114.097 25.5966 114.288 24.7269C114.303 24.6618 114.298 24.5932 114.36 24.5498C114.362 24.5475 114.374 24.5555 114.381 24.5612C114.387 24.5669 114.394 24.5749 114.401 24.5818C114.401 23.7818 114.401 22.9829 114.401 22.1806C114.384 22.1692 114.357 22.1601 114.354 22.1475C114.352 22.1189 114.375 22.1121 114.401 22.1246C114.401 22.0663 114.401 22.0092 114.401 21.9532C114.31 21.8835 114.312 21.8835 114.286 21.7703C114.104 20.9372 113.743 20.1909 113.176 19.5509C112.336 18.6012 111.241 18.0252 110.113 17.5029C109.001 16.9886 107.847 16.5658 106.776 15.9589C106.151 15.6046 105.564 15.2035 105.106 14.6378C104.581 13.9898 104.573 13.2446 104.675 12.4698C104.832 11.2721 105.953 10.2538 107.162 10.2401C108.575 10.2241 109.7 10.8092 110.569 11.9052C111.221 12.7292 111.63 13.6801 112.001 14.6503C112.31 15.4561 112.351 15.4663 113.161 15.1669C113.328 15.1052 113.374 15.0241 113.369 14.8572C113.324 13.2206 113.278 11.5841 113.249 9.94634C113.245 9.68348 113.14 9.57148 112.903 9.47891C111.632 8.98634 110.306 8.76348 108.959 8.61605C107.412 8.44691 105.881 8.48462 104.365 8.86862C101.444 9.60805 99.3267 11.9818 99.1528 14.6698C99.0018 17.0126 99.7991 18.8812 101.822 20.1601C102.696 20.7121 103.667 21.0561 104.619 21.4412C105.589 21.8343 106.56 22.2241 107.43 22.8195C107.885 23.1303 108.276 23.5029 108.494 24.0229C109.159 25.6366 108.203 27.6172 106.498 27.9989C104.698 28.4035 103.149 27.8903 101.933 26.4709C101.103 25.5029 100.56 24.3761 100.086 23.2092C99.8243 22.5646 99.7648 22.5372 99.0876 22.7532C99.0418 22.7681 98.9983 22.7898 98.9537 22.8023C98.7936 22.8492 98.7352 22.9463 98.7386 23.1178C98.7924 24.9361 98.8347 26.7543 98.8851 28.5715C98.8977 29.0458 98.9045 29.0526 99.3644 29.2149C100.68 29.6789 102.046 29.9223 103.42 30.1292C103.502 30.1418 103.63 30.0835 103.648 30.2401C104.98 30.2378 106.316 30.2378 107.65 30.2378ZM64.6921 0.352051C64.6795 0.377194 64.6852 0.400052 64.7149 0.396624C64.7287 0.395481 64.739 0.368051 64.7504 0.352051C64.731 0.352051 64.7115 0.352051 64.6921 0.352051ZM114.4 22.1235C114.374 22.1098 114.351 22.1166 114.353 22.1463C114.355 22.1601 114.383 22.1692 114.4 22.1795C114.4 22.1623 114.4 22.1418 114.4 22.1235ZM0 28.8092C0.006864 28.8035 0.020592 28.7955 0.019448 28.7921C0.014872 28.7783 0.00572 28.7646 0 28.7509C0 28.7715 0 28.7898 0 28.8092ZM31.0024 30.2378C30.983 30.1909 30.9635 30.1978 30.9452 30.2378C30.9635 30.2378 30.983 30.2378 31.0024 30.2378ZM66.9801 30.2378C66.9618 30.1921 66.9423 30.1989 66.924 30.2378C66.9423 30.2378 66.9618 30.2378 66.9801 30.2378ZM88.2024 30.2366C88.1841 30.2229 88.1669 30.2115 88.1486 30.1978C88.1463 30.2115 88.1464 30.2229 88.1441 30.2366C88.1635 30.2366 88.183 30.2366 88.2024 30.2366ZM88.66 30.2378C88.6394 30.1863 88.6222 30.2138 88.6017 30.2378C88.6222 30.2378 88.6394 30.2378 88.66 30.2378ZM49.4414 12.7349C49.4894 11.4618 49.5363 10.1875 49.5844 8.91434C49.5981 8.55091 49.5764 8.52691 49.2332 8.59091C46.5322 9.08919 43.8404 9.63777 41.152 10.1932C40.5548 10.3155 40.5308 10.3589 40.5559 10.9703C40.5571 10.9898 40.5571 11.0081 40.5571 11.0275C40.5605 11.2081 40.6475 11.2983 40.8316 11.3281C41.1314 11.3749 41.4277 11.4503 41.7274 11.4949C42.5007 11.6126 42.9309 12.0892 43.1345 12.8092C43.337 13.5212 43.3759 14.2549 43.4011 14.9841C43.4846 17.4583 43.4926 19.9338 43.4377 22.4092C43.4091 23.7406 43.4034 25.0732 43.2455 26.3989C43.1231 27.4241 42.5877 28.0652 41.6199 28.2766C41.351 28.3361 41.0765 28.3738 40.8076 28.4309C40.7127 28.4503 40.5994 28.4549 40.5994 28.6103C40.5994 28.8572 40.5731 29.1041 40.5697 29.3509C40.5674 29.5658 40.636 29.7155 40.9026 29.6892C41.0524 29.6743 41.2069 29.7041 41.359 29.7041C43.9799 29.7109 46.6008 29.7178 49.2217 29.7201C50.3657 29.7212 51.5097 29.7086 52.6526 29.7143C52.8654 29.7155 52.9432 29.6515 52.9386 29.4423C52.9329 29.1955 52.9512 28.9475 52.9592 28.7006C52.9638 28.5201 52.894 28.4298 52.6949 28.4149C52.2968 28.3886 51.8999 28.3372 51.5029 28.2903C50.9538 28.2275 50.4275 28.1143 50.0878 27.6092C49.8933 27.3212 49.78 27.0012 49.7102 26.6629C49.4986 25.6423 49.4791 24.6023 49.4391 23.5692C49.3316 20.8286 49.3476 18.0869 49.4219 15.3452C49.4357 14.8446 49.6507 14.5258 50.0855 14.3132C51.0796 13.8241 52.1195 13.7155 53.1994 13.9235C53.9156 14.0618 54.5665 14.3818 55.2232 14.6835C55.4588 14.7932 55.5904 14.7692 55.6968 14.5041C56.3557 12.8549 56.9929 11.1966 57.5752 9.51891C57.7057 9.14291 57.6633 9.04691 57.3133 8.86748C57.2378 8.82862 57.16 8.78977 57.0787 8.76234C55.8501 8.37948 54.6237 8.3532 53.4157 8.83434C51.9399 9.42177 50.8748 10.4789 50.0569 11.8115C49.8658 12.1235 49.6862 12.4435 49.5009 12.7601C49.4791 12.7498 49.4597 12.7418 49.4414 12.7349Z" fill="#1C1D1F"/>
</svg>
