<svg width="178" height="32" viewBox="0 0 178 32" fill="none" xmlns="http://www.w3.org/2000/svg">
<g clip-path="url(#clip0_11_6229)">
<path d="M29.4542 25.0903H11.6047L8.6875 20.1436H26.5534L29.4542 25.0903Z" fill="#7B58FA"/>
<path d="M23.6336 15.1972L20.7494 20.1439L11.8164 4.93056L14.7171 0L23.6336 15.1972Z" fill="#7B58FA"/>
<path d="M14.7344 9.86133L5.80148 25.0747L0 25.0909L8.93296 9.86133H14.7344Z" fill="#7B58FA"/>
<path d="M176.005 11.3211L175.956 10.8183C175.923 10.4939 175.791 10.2831 175.543 10.1858C175.89 10.0398 176.054 9.78028 176.054 9.3748C176.054 9.06664 175.956 8.83958 175.741 8.67739C175.527 8.5152 175.23 8.4341 174.851 8.4341H173.368V11.8401H173.961V10.4777H174.901C175.066 10.4777 175.181 10.5101 175.247 10.5912C175.313 10.6561 175.362 10.7859 175.379 10.9805L175.412 11.3211C175.428 11.5644 175.461 11.7428 175.543 11.8401H176.153C176.071 11.6941 176.021 11.5157 176.005 11.3211ZM174.901 9.94247H173.978V8.96933H174.851C175.247 8.96933 175.445 9.13152 175.445 9.4559C175.445 9.78028 175.263 9.94247 174.901 9.94247ZM176.005 11.3211L175.956 10.8183C175.923 10.4939 175.791 10.2831 175.543 10.1858C175.89 10.0398 176.054 9.78028 176.054 9.3748C176.054 9.06664 175.956 8.83958 175.741 8.67739C175.527 8.5152 175.23 8.4341 174.851 8.4341H173.368V11.8401H173.961V10.4777H174.901C175.066 10.4777 175.181 10.5101 175.247 10.5912C175.313 10.6561 175.362 10.7859 175.379 10.9805L175.412 11.3211C175.428 11.5644 175.461 11.7428 175.543 11.8401H176.153C176.071 11.6941 176.021 11.5157 176.005 11.3211ZM174.901 9.94247H173.978V8.96933H174.851C175.247 8.96933 175.445 9.13152 175.445 9.4559C175.445 9.78028 175.263 9.94247 174.901 9.94247ZM177.043 7.93132C176.401 7.315 175.609 7.00684 174.67 7.00684C173.731 7.00684 172.939 7.315 172.297 7.93132C171.654 8.54764 171.324 9.29371 171.324 10.1858C171.324 11.0778 171.654 11.8239 172.297 12.4402C172.939 13.0565 173.731 13.3647 174.67 13.3647C175.609 13.3647 176.401 13.0565 177.043 12.4402C177.686 11.8239 177.999 11.0778 177.999 10.1858C177.999 9.29371 177.686 8.54764 177.043 7.93132ZM176.549 11.9861C176.054 12.4726 175.428 12.7159 174.67 12.7159C173.912 12.7159 173.269 12.4726 172.775 11.9861C172.264 11.4833 172.016 10.8832 172.016 10.1695C172.016 9.4559 172.264 8.83958 172.775 8.35301C173.269 7.86644 173.912 7.62316 174.67 7.62316C175.428 7.62316 176.054 7.86644 176.549 8.35301C177.06 8.8558 177.307 9.4559 177.307 10.1695C177.323 10.8832 177.06 11.4833 176.549 11.9861ZM175.972 10.8183C175.939 10.4939 175.807 10.2831 175.56 10.1858C175.906 10.0398 176.071 9.78028 176.071 9.3748C176.071 9.06664 175.972 8.83958 175.758 8.67739C175.543 8.5152 175.247 8.4341 174.868 8.4341H173.384V11.8401H173.978V10.4777H174.917C175.082 10.4777 175.197 10.5101 175.263 10.5912C175.329 10.6561 175.379 10.7859 175.395 10.9805L175.428 11.3211C175.445 11.5644 175.478 11.7428 175.56 11.8401H176.17C176.071 11.6941 176.021 11.5157 176.005 11.3211L175.972 10.8183ZM174.901 9.94247H173.978V8.96933H174.851C175.247 8.96933 175.445 9.13152 175.445 9.4559C175.445 9.78028 175.263 9.94247 174.901 9.94247Z" fill="white"/>
<path d="M124.964 6.4873C120.003 6.4873 117.383 8.51467 117.119 12.5856H120.663C120.877 9.82841 122.426 9.3094 124.964 9.3094C127.832 9.3094 128.755 10.1852 128.755 11.9207C128.755 13.3641 127.783 13.9967 126.003 14.2075L123.283 14.4833C118.652 14.9536 116.328 16.835 116.328 20.1112C116.328 24.1173 119.69 25.4959 122.921 25.4959C125.69 25.4959 127.7 24.539 128.936 22.6089V25.0742H132.266V11.8396C132.282 8.27139 129.843 6.4873 124.964 6.4873ZM128.772 17.9054C128.772 19.4625 128.277 20.6627 127.272 21.5061C126.266 22.3494 124.997 22.7711 123.481 22.7711C122.36 22.7711 121.503 22.5279 120.91 22.0413C120.333 21.5547 120.036 20.8897 120.036 20.0139C120.036 19.1381 120.333 18.4731 120.926 17.9865C121.52 17.5 122.509 17.1918 123.893 17.0134L126.481 16.7377C127.552 16.6242 128.31 16.3809 128.772 16.0078V17.9054Z" fill="white"/>
<path d="M48.8358 0H44.4353L34.4805 25.0907H38.4525L40.9247 18.5707H52.3794L54.8845 25.0907H58.939L48.8358 0ZM42.1279 15.2945C42.1279 15.2945 44.5342 9.0664 46.6108 3.63305C48.1271 7.73644 51.1268 15.2945 51.1268 15.2945H42.1279Z" fill="white"/>
<path d="M73.3597 0V9.37456C71.9752 7.4445 69.9809 6.48758 67.3769 6.48758C62.8115 6.48758 58.9219 9.52053 58.9219 16.0081C58.9219 21.9605 62.3171 25.5124 67.3769 25.5124C70.0798 25.5124 72.1235 24.4744 73.4915 22.4146V25.0907H76.9361V0H73.3597ZM68.0526 22.4795C65.02 22.4795 62.6467 20.4845 62.6467 16.1379C62.6467 11.9858 64.7563 9.52053 68.0526 9.52053C71.9422 9.52053 73.4585 12.4562 73.4585 16.0081C73.4585 20.1926 71.3489 22.4795 68.0526 22.4795Z" fill="white"/>
<path d="M88.5711 14.5481L86.6428 14.2237C84.154 13.7372 83.1981 13.0073 83.1981 11.6449C83.1981 9.89329 84.7968 9.21209 86.7746 9.21209C90.3181 9.21209 90.9939 10.7042 91.1092 12.5532H94.5868C94.4715 8.51467 91.8674 6.4873 86.7911 6.4873C81.9126 6.4873 79.6711 8.83905 79.6711 11.7747C79.6711 14.6941 81.6324 16.4944 85.5385 17.208L87.4339 17.5649C90.6313 18.1163 91.3729 18.9597 91.3729 20.241C91.3729 21.9278 90.005 22.7711 87.2855 22.7711C83.6431 22.7711 82.9509 21.2141 82.7366 19.3165H79.1602C79.4239 23.4686 82.1268 25.5446 87.2526 25.5446C92.4937 25.5446 94.9824 23.2253 94.9824 19.9815C94.9824 17.2405 93.4661 15.4726 88.5711 14.5481Z" fill="white"/>
<path d="M106.784 6.4873C104.065 6.4873 102.005 7.54154 100.62 9.65V6.909H97.1758V31.9997H100.752V22.5441C102.137 24.5228 104.147 25.4959 106.768 25.4959C111.63 25.4959 115.223 22.0737 115.223 15.9916C115.223 10.0555 111.877 6.4873 106.784 6.4873ZM106.092 22.4792C102.648 22.4792 100.686 19.8679 100.686 15.9916C100.686 11.8882 102.763 9.50403 106.092 9.50403C110.015 9.50403 111.498 12.4397 111.498 15.8456C111.515 19.9328 109.537 22.4792 106.092 22.4792Z" fill="white"/>
<path d="M147.921 18.6029C147.41 21.6034 145.152 22.4468 143.306 22.4468C139.515 22.4468 138.213 19.203 138.213 16.0078C138.213 12.3586 139.795 9.55269 143.306 9.55269C145.383 9.55269 147.36 10.6069 147.888 13.2506H151.547C151.036 9.53647 148.3 6.4873 143.306 6.4873C138.905 6.4873 134.488 9.24453 134.488 15.9916C134.488 22.317 138.609 25.4959 143.289 25.4959C148.712 25.4959 151.118 21.8791 151.563 18.5866H147.921V18.6029Z" fill="white"/>
<path d="M170.22 16.1376C170.22 10.7042 167.138 6.4873 161.452 6.4873C156.623 6.4873 152.684 9.84463 152.684 16.0078C152.684 22.1224 156.606 25.5121 161.534 25.5121C166.165 25.5121 168.901 22.8685 169.808 19.5273H166.198C165.473 21.5547 163.957 22.5603 161.617 22.5603C158.864 22.5603 156.689 21.133 156.326 17.1756H170.253V16.1376H170.22ZM156.326 14.3697C156.54 12.7803 157.101 11.5476 157.991 10.7042C158.881 9.86085 160.034 9.43915 161.452 9.43915C162.886 9.43915 164.039 9.89329 164.946 10.8015C165.836 11.7098 166.363 12.8938 166.545 14.3697H156.326Z" fill="white"/>
</g>
<defs>
<clipPath id="clip0_11_6229">
<rect width="178" height="32" fill="white"/>
</clipPath>
</defs>
</svg>
