<svg width="32" height="32" viewBox="0 0 32 32" fill="none" xmlns="http://www.w3.org/2000/svg">
<path d="M11.9993 29.3337H19.9993C26.666 29.3337 29.3327 26.667 29.3327 20.0003V12.0003C29.3327 5.33366 26.666 2.66699 19.9993 2.66699H11.9993C5.33268 2.66699 2.66602 5.33366 2.66602 12.0003V20.0003C2.66602 26.667 5.33268 29.3337 11.9993 29.3337Z" stroke="#1C1D1F" stroke-width="2.4" stroke-linecap="round" stroke-linejoin="round"/>
<path d="M12.0007 13.3333C13.4734 13.3333 14.6673 12.1394 14.6673 10.6667C14.6673 9.19391 13.4734 8 12.0007 8C10.5279 8 9.33398 9.19391 9.33398 10.6667C9.33398 12.1394 10.5279 13.3333 12.0007 13.3333Z" stroke="#1C1D1F" stroke-width="2.4" stroke-linecap="round" stroke-linejoin="round"/>
<path d="M3.56055 25.2661L10.1339 20.8528C11.1872 20.1461 12.7072 20.2261 13.6539 21.0394L14.0939 21.4261C15.1339 22.3194 16.8139 22.3194 17.8539 21.4261L23.4005 16.6661C24.4405 15.7728 26.1205 15.7728 27.1605 16.6661L29.3339 18.5328" stroke="#1C1D1F" stroke-width="2.4" stroke-linecap="round" stroke-linejoin="round"/>
</svg>
