<svg width="32" height="32" viewBox="0 0 32 32" fill="none" xmlns="http://www.w3.org/2000/svg">
<path d="M16.0001 10.5195L14.5734 12.9995C14.2534 13.5462 14.5201 13.9995 15.1467 13.9995H16.8401C17.4801 13.9995 17.7334 14.4529 17.4134 14.9995L16.0001 17.4795" stroke="#1C1D1F" stroke-width="2.4" stroke-linecap="round" stroke-linejoin="round"/>
<path d="M11.0671 24.0532V22.5066C8.00047 20.6532 5.48047 17.0399 5.48047 13.1999C5.48047 6.59991 11.5471 1.42658 18.4005 2.91991C21.4138 3.58658 24.0538 5.58658 25.4271 8.34658C28.2138 13.9466 25.2805 19.8932 20.9738 22.4932V24.0399C20.9738 24.4266 21.1205 25.3199 19.6938 25.3199H12.3471C10.8805 25.3332 11.0671 24.7599 11.0671 24.0532Z" stroke="#1C1D1F" stroke-width="2.4" stroke-linecap="round" stroke-linejoin="round"/>
<path d="M11.334 29.3336C14.3873 28.4669 17.614 28.4669 20.6673 29.3336" stroke="#1C1D1F" stroke-width="2.4" stroke-linecap="round" stroke-linejoin="round"/>
</svg>
