<svg width="32" height="32" viewBox="0 0 32 32" fill="none" xmlns="http://www.w3.org/2000/svg">
<path d="M16.1603 17.0409C16.067 17.0276 15.947 17.0276 15.8403 17.0409C13.4936 16.9609 11.627 15.041 11.627 12.681C11.627 10.2676 13.5736 8.30762 16.0003 8.30762C18.4136 8.30762 20.3736 10.2676 20.3736 12.681C20.3603 15.041 18.507 16.9609 16.1603 17.0409Z" stroke="#1C1D1F" stroke-width="2.4" stroke-linecap="round" stroke-linejoin="round"/>
<path d="M24.987 25.8391C22.6137 28.0124 19.467 29.3324 16.0003 29.3324C12.5337 29.3324 9.38701 28.0124 7.01367 25.8391C7.14701 24.5858 7.94701 23.3591 9.37367 22.3991C13.027 19.9724 19.0003 19.9724 22.627 22.3991C24.0537 23.3591 24.8537 24.5858 24.987 25.8391Z" stroke="#1C1D1F" stroke-width="2.4" stroke-linecap="round" stroke-linejoin="round"/>
<path d="M15.9993 29.3337C23.3631 29.3337 29.3327 23.3641 29.3327 16.0003C29.3327 8.63653 23.3631 2.66699 15.9993 2.66699C8.63555 2.66699 2.66602 8.63653 2.66602 16.0003C2.66602 23.3641 8.63555 29.3337 15.9993 29.3337Z" stroke="#1C1D1F" stroke-width="2.4" stroke-linecap="round" stroke-linejoin="round"/>
</svg>
